PathFileType	4	(X/Y/Z)	D:\TRACE\v60_Jaco2_6-2-23\v60_baseline_4-v60.trc
DataRate	CameraRate	NumFrames	NumMarkers	Units	OrigDataRate	OrigDataStartFrame	OrigNumFrames
100.00	100.00	      42	9	mm	100.00	1626	      6500
Frame#	Time	front left toe			Front right toe			aft left toe			aft right toe			Arm			FL body			FR body			AL Body			AR Body			
		X1	Y1	Z1	X2	Y2	Z2	X3	Y3	Z3	X4	Y4	Z4	X5	Y5	Z5	X6	Y6	Z6	X7	Y7	Z7	X8	Y8	Z8	X9	Y9	Z9	

1626	16.250	-112.68290	109.37405	-129.64095	265.49612	15.76672	-153.28276	-86.33813	15.02329	489.33243	289.27786	106.35391	480.40244	-36.93342	1207.38904	-263.44955	-7.70413	576.77191	-269.86395	152.93561	577.79352	-277.21771	35.64658	558.19312	675.31689	192.31676	552.97601	668.57471	
1627	16.260	-113.02033	101.99028	-129.33122	265.51459	15.61827	-153.30739	-86.35383	14.89520	489.27573	288.59415	97.75554	481.21872	-35.58071	1207.98694	-263.24539	-7.19283	576.67511	-269.65439	153.45665	577.70471	-276.81699	35.35420	558.01086	675.51715	191.92827	552.74481	668.67542	
1628	16.270	-112.74005	93.72565	-129.07512	265.50464	15.53656	-153.25070	-86.37402	14.91716	489.27136	288.97217	89.57462	481.77554	-35.81577	1208.00378	-263.54779	-6.72372	576.56519	-269.39932	153.78017	577.66754	-276.51047	35.13495	558.17010	675.42633	191.75403	552.56427	669.03601	
1629	16.280	-112.41274	85.21507	-128.65639	265.57626	15.60183	-153.16730	-86.37418	14.88442	489.28140	287.80981	80.36188	482.31717	-35.15732	1207.99963	-263.26474	-6.46616	576.63940	-269.32416	153.78929	577.73822	-276.65231	34.90934	558.06464	675.52917	191.48711	552.49731	669.33887	
1630	16.290	-112.66146	76.47559	-127.97116	265.54300	15.65614	-153.10841	-86.43690	14.88185	489.24194	287.91623	72.44709	482.86923	-34.09981	1208.08142	-262.85629	-6.35442	576.72913	-269.26080	153.82883	577.83838	-276.56207	34.55172	557.96814	675.58496	191.28188	552.45660	669.51587	
1631	16.300	-113.05617	67.99377	-127.30638	265.55536	15.74913	-153.00778	-86.45596	14.88839	489.26233	287.68280	63.88605	482.97720	-33.77342	1208.03027	-262.80060	-6.13778	576.72729	-269.20364	153.98018	577.68231	-276.18533	34.30222	557.97906	675.86475	191.19270	552.45703	669.69122	
1632	16.310	-112.98262	58.83833	-126.61768	265.61456	15.66573	-152.93520	-86.47919	14.84934	489.31708	287.64420	55.18827	482.79245	-33.32854	1208.02087	-262.70175	-5.96844	576.67560	-269.02063	153.69528	577.45081	-275.78741	34.48816	557.94440	675.88776	191.18985	552.38873	669.85217	
1633	16.320	-113.66161	50.65963	-126.15469	265.53217	15.49590	-152.97887	-86.42000	14.79204	489.32489	288.63232	47.30177	482.92505	-33.42531	1208.06299	-262.81494	-5.78230	576.67816	-268.90552	154.25302	577.23212	-275.51041	34.70060	557.65503	676.48547	190.96910	552.13690	670.03387	
1634	16.330	-113.99450	43.19552	-125.88210	265.52185	15.46825	-152.92987	-86.48024	14.78318	489.26938	288.77206	39.62751	482.71838	-33.17967	1207.72144	-262.48743	-5.62276	576.69568	-268.82794	154.69040	577.11816	-275.29092	34.74192	557.48926	676.54419	190.91023	551.96631	670.08252	
1635	16.340	-114.15364	35.85993	-125.99644	265.58160	15.47762	-152.90810	-86.41721	14.77262	489.28616	288.54083	32.41315	482.58667	-32.15613	1207.66211	-261.82831	-5.46924	576.80164	-268.79187	154.88171	577.10315	-275.19165	34.83462	557.32275	676.63654	190.97220	551.75623	670.25397	
1636	16.350	-113.83981	29.36597	-125.94945	265.60776	15.50713	-152.85497	-86.48184	14.78044	489.27380	288.41208	25.79067	482.29834	-31.64900	1207.70154	-261.75076	-5.23814	576.81909	-268.66812	155.04903	577.15680	-275.15756	34.87770	557.20538	676.69556	191.01622	551.51233	670.35986	
1637	16.360	-113.74346	22.92091	-126.16288	265.66470	15.49892	-152.82959	-86.43295	14.68066	489.35934	288.39017	20.05054	481.66000	-31.68513	1207.97937	-262.15546	-5.01741	576.75476	-268.51505	155.22466	577.21075	-275.12216	34.92810	557.05688	676.75873	191.00648	551.32190	670.36694	
1638	16.370	-114.26548	20.93410	-127.93507	265.61053	15.34611	-152.90997	-86.44328	14.71466	489.35748	289.84979	20.33744	479.83759	-31.04267	1208.32495	-261.92990	-4.76834	576.80023	-268.41354	155.43054	577.12048	-275.15964	34.91912	557.12543	676.83575	191.14851	551.67639	670.53394	
1639	16.380	-114.47002	18.32710	-128.00713	265.42160	15.20422	-152.80351	-86.36018	14.94849	489.33282	289.92114	18.45182	480.31464	-30.58437	1208.56238	-261.61899	-4.19939	576.80377	-268.35989	155.74681	577.21130	-275.06406	34.74924	558.34705	676.87390	191.33304	552.48938	670.87360	
1640	16.390	-114.90050	19.42481	-128.06487	265.51953	16.02608	-152.82440	-86.01773	15.60383	489.05765	289.94595	18.87620	480.18045	-30.28326	1208.89697	-261.69794	-3.49214	577.62958	-268.13434	156.47665	577.93958	-274.47955	34.39016	559.53180	677.02368	191.37709	554.16919	671.19427	
1641	16.400	-113.95090	18.47870	-127.02367	264.99268	19.14402	-152.75943	-85.82516	18.51914	488.94647	289.42993	17.80068	481.32025	-29.75230	1209.61951	-262.49847	-3.17775	578.82971	-268.10980	157.24594	578.90961	-274.49298	34.35721	560.29279	677.09161	191.17206	554.60547	671.53674	
1642	16.410	-114.36192	19.15200	-127.96647	262.08871	22.83118	-149.77623	-83.13456	21.73104	491.02893	289.74783	17.73641	480.25656	-28.88023	1210.37671	-262.85120	-2.71060	579.97284	-268.13037	158.05362	580.15759	-274.33716	34.21270	560.39056	677.09796	190.98929	554.66705	671.60632	
1643	16.420	-114.31541	18.83399	-127.89857	259.75592	27.48267	-146.54767	-80.06640	26.75218	492.86475	289.83444	17.84876	480.57925	-27.79715	1211.50183	-262.90268	-2.43299	580.24634	-268.17789	158.04254	580.74951	-274.54861	33.95572	560.61279	677.06415	190.74031	555.11737	671.65588	
1644	16.430	-114.29581	18.45063	-127.98845	258.04745	36.08492	-145.77385	-77.23981	35.00191	492.43896	289.76453	18.17129	480.50006	-26.71011	1212.24072	-262.42365	-2.32429	580.54199	-268.27081	157.76767	580.61285	-274.28635	34.25625	560.96814	677.20166	190.66469	555.49530	671.56781	
1645	16.440	-114.38301	18.31400	-127.90327	257.96106	45.54049	-145.62057	-75.64882	45.38876	491.59921	289.64297	17.96011	480.48242	-26.31010	1212.47168	-261.77472	-2.31717	580.57288	-268.29623	157.89597	580.52124	-274.25729	34.29921	561.06805	677.13281	190.71983	555.64478	671.52441	
1646	16.450	-114.46050	18.26227	-127.81493	259.63486	56.62276	-146.62585	-76.52996	56.13514	490.52814	289.74948	17.66887	480.50369	-26.10831	1212.39453	-261.32520	-2.31593	580.45361	-268.17352	157.74467	580.43964	-274.36569	34.74941	560.74335	677.18933	191.26990	555.12482	671.50873	
1647	16.460	-114.66343	18.26757	-127.81872	261.01047	67.79068	-147.91110	-78.29611	67.25804	489.83194	289.76041	17.46774	480.43582	-26.39666	1212.17957	-261.14426	-1.73895	580.10034	-267.69687	158.26904	580.48645	-274.69492	34.88465	560.15814	677.09479	191.78842	554.47839	671.51758	
1648	16.470	-114.75598	18.10926	-127.76413	262.66263	79.17681	-149.10577	-80.40151	78.77847	489.21402	289.90106	17.30470	480.45450	-26.70618	1211.86829	-261.30624	-1.57677	579.88257	-267.48615	158.16852	580.25665	-274.63284	35.51789	559.43372	677.15924	192.44304	553.60608	671.35583	
1649	16.480	-114.78413	17.87435	-127.73091	263.39203	90.09207	-150.02504	-81.12038	89.63764	488.90509	290.06372	17.15630	480.47290	-26.61738	1211.00366	-260.83984	-2.40544	579.97491	-267.82724	158.10161	579.99237	-274.32111	35.98514	558.84363	677.31134	192.55649	552.72687	671.46161	
1650	16.490	-114.80669	17.74428	-127.69550	264.06732	100.86745	-150.09247	-82.03185	100.52557	488.78442	290.20819	17.09037	480.51999	-26.70611	1210.67126	-260.39780	-2.49944	579.71643	-267.66943	157.89740	579.47192	-274.27838	36.53457	558.32587	677.45148	193.13867	552.33868	671.41595	
1651	16.500	-115.11221	17.73312	-127.49580	264.40939	110.68863	-149.98642	-81.65069	110.62463	489.04620	290.20938	16.91574	480.55499	-26.80625	1210.49011	-260.06506	-2.56299	579.47894	-267.49609	157.64223	579.05853	-274.21442	36.97013	557.96515	677.64050	193.70541	551.94507	671.47736	
1652	16.510	-114.96499	17.59267	-127.43446	264.69327	119.61040	-149.75406	-80.35397	119.92175	489.52020	290.24115	16.77923	480.55005	-26.86732	1210.53674	-259.85434	-2.81381	579.28693	-267.12045	157.16444	578.59760	-273.73026	37.85822	557.64099	678.14032	193.83752	551.50891	671.61420	
1653	16.520	-115.26882	17.76597	-127.42857	265.15717	127.82275	-149.39447	-79.06556	128.34981	489.84531	290.23938	16.79365	480.55930	-27.17626	1210.38049	-259.14743	-2.89871	578.91699	-266.80737	156.99976	578.33545	-273.46201	38.08646	557.56970	678.28937	194.38066	551.45642	671.73938	
1654	16.530	-115.34944	17.74810	-127.32332	265.73599	134.84061	-148.97966	-78.80527	135.85571	490.01083	290.34744	16.81614	480.56485	-26.85944	1210.19336	-258.91455	-3.26317	578.71448	-266.57248	156.78476	578.17017	-273.22220	38.57237	557.45941	678.64618	194.98021	551.40082	671.92902	
1655	16.540	-115.23778	17.55226	-127.13623	266.28140	140.70496	-149.15082	-78.99098	141.49365	490.24420	290.35025	16.76037	480.57153	-27.56227	1209.39197	-258.55951	-3.33511	578.29736	-265.97339	156.57680	578.05524	-273.09473	38.83051	557.62366	678.82330	195.54343	551.59363	672.41968	
1656	16.550	-114.85271	17.27826	-127.01797	267.82068	145.23792	-148.77272	-80.17551	143.95197	490.87515	290.33401	16.72287	480.58377	-27.36541	1209.23376	-258.43774	-3.42395	578.25610	-265.80295	156.35657	577.86346	-272.88071	39.65230	557.68915	679.20697	196.34245	551.71289	672.54791	
1657	16.560	-114.66740	17.43308	-126.89638	268.40540	145.74275	-147.92812	-80.39567	144.20346	492.05237	290.39981	16.72348	480.61737	-27.46097	1209.21094	-258.28137	-3.86497	578.46484	-265.27426	156.25076	577.92523	-272.73868	40.46169	557.71228	679.88019	197.01572	551.92340	672.80884	
1658	16.570	-114.64313	17.54728	-126.80920	268.68219	143.92418	-147.17987	-80.66334	143.03645	493.15167	290.43304	16.70432	480.61621	-27.70974	1209.17725	-258.05002	-4.02879	578.63751	-264.92432	155.95378	578.03729	-272.32510	41.03978	557.84882	680.15991	197.18909	551.66876	673.02631	
1659	16.580	-114.66814	17.53476	-126.78142	268.85638	140.14130	-145.68442	-80.12296	139.98491	494.51196	290.41528	16.70815	480.59851	-28.38730	1209.49500	-257.28058	-4.55666	578.75684	-264.54590	155.86795	577.97351	-271.86426	41.46950	558.15607	680.15771	197.59378	551.77570	673.16644	
1660	16.590	-114.64183	17.43495	-126.76229	268.28857	135.28448	-144.73418	-79.69057	136.49612	496.30865	290.45404	16.70512	480.62408	-28.68227	1209.53088	-256.89343	-4.60634	578.62329	-264.09644	155.75925	577.99731	-271.59491	41.84635	558.16895	680.43579	197.90785	551.76526	673.35614	
1661	16.600	-114.60950	17.40913	-126.72874	267.70370	129.55869	-143.85698	-79.11265	131.58698	497.90619	290.46918	16.66158	480.61078	-28.42912	1209.80127	-256.40274	-4.46059	578.57703	-263.81793	155.51889	577.93506	-271.50266	41.97979	558.21564	680.77899	198.72491	552.05035	674.05054	
1662	16.610	-114.60670	17.42709	-126.65762	267.93524	123.29725	-142.62491	-78.93513	125.10155	499.63220	290.46188	16.51950	480.59653	-28.04369	1209.95410	-255.83180	-4.33420	578.49347	-263.58694	155.16679	577.83575	-271.37476	42.57637	558.13556	681.42065	199.21925	551.94141	674.06085	
1663	16.620	-114.65416	17.56948	-126.63486	267.98679	116.45293	-142.22559	-79.91629	118.47741	500.84842	290.48663	16.41912	480.57150	-27.90852	1209.92615	-255.60406	-4.75517	578.56982	-263.18231	154.97227	577.91260	-271.23083	43.14329	558.11664	681.74756	199.50850	551.83063	674.14813	
1664	16.630	-114.77869	17.52139	-126.57704	268.91675	109.62185	-141.67819	-80.27422	111.07538	501.62070	290.61688	16.35478	480.56778	-26.37189	1209.90723	-255.55823	-5.42570	578.76685	-262.62680	154.66452	577.86731	-270.87268	43.62368	557.94818	682.02661	200.01495	551.63287	674.20728	
1665	16.640	-114.83296	17.43071	-126.53387	269.21411	102.06383	-141.39449	-79.98906	101.93208	502.89096	290.65036	16.25821	480.54944	-27.44799	1209.87561	-255.12759	-5.54762	578.53552	-262.30530	154.50670	577.72058	-270.51843	43.73780	557.90387	682.23169	200.09363	551.38794	674.43225	
1666	16.650	-114.84509	17.26489	-126.48569	268.96133	94.17184	-141.17255	-79.23644	92.95420	503.61172	290.73434	16.12823	480.52335	-27.98236	1209.62500	-254.99809	-5.46179	578.27576	-262.03473	154.38290	577.55463	-270.31274	44.04988	557.76392	682.56500	200.44789	551.23706	674.70697	
1667	16.660	-114.82742	17.20415	-126.51075	268.73645	85.47224	-140.41676	-79.61814	85.09682	504.30688	290.64441	16.10811	480.53860	-28.13486	1209.55432	-254.34180	-5.39587	578.19452	-261.80542	154.15059	577.30505	-269.94592	44.12267	557.72046	682.73749	200.63463	551.14496	674.88373	
